<?xml version="1.0" encoding="utf-8"?>
<!-- Generator: Adobe Illustrator 22.0.0, SVG Export Plug-In . SVG Version: 6.00 Build 0)  -->
<svg version="1.1" id="Capa_1" xmlns="http://www.w3.org/2000/svg" xmlns:xlink="http://www.w3.org/1999/xlink" x="0px" y="0px"
	 viewBox="0 0 181.5 43.6" style="enable-background:new 0 0 181.5 43.6;" xml:space="preserve">
<style type="text/css">
	.st0{fill:#FFFFFF;}
	.st1{fill:#72A538;}
	.st2{fill:#31408C;}
	.st3{fill:#C4142D;}
</style>
<g>
	<path d="M102.6,28.8c-2.2,0-3.2-1.7-3.2-3.9c0-2.2,1.2-3.8,3.1-3.8c0.9,0,1.6,0.2,2.1,0.4l0.3-2.5c-0.9-0.3-1.8-0.4-3-0.4
		c-3.7,0-5.8,2.7-5.8,6.2c0,3.6,2,6.3,5.9,6.3c1.3,0,2.2-0.1,3.1-0.4l-0.1-2.6C104.5,28.4,103.5,28.8,102.6,28.8 M91.8,24.8
		c0,1.5-0.5,4-2.7,4c-2,0-2-2-2-3.4V19h-3.1v7.5c0,2.7,1.2,4.7,4.1,4.7c1.6,0,3-0.7,3.9-1.9h0v1.6h2.9V19h-3.1V24.8z M71.4,18.8
		c-0.3-0.1-0.7-0.1-1-0.1c-1.9,0-3.1,1.9-3.3,3h-0.1V19h-2.8v11.9h3.1v-4.4c0-1.7,0-4.9,2.5-4.9c0.6,0,1.1,0.1,1.4,0.3V18.8z
		 M53.7,14.7l-6.3,16.2h3.4l1.4-3.7l5.7-2.6h-4.7l2.3-6.7h0l2.3,6.7l2.3,6.3h3.6l-6.4-16.2H53.7z M173.4,14.8h-1.8l-2,3.2h1.1
		L173.4,14.8z M82,25.2v-1.5c0-3.5-1.5-5-5.1-5c-1.3,0-2.9,0.3-4.2,0.9l0.1,2.7c1-0.8,2.4-1.3,3.7-1.3c1.8,0,2.7,0.7,2.7,2.6h-1.7
		c-1.3,0-2.8,0.1-4,0.7c-1.2,0.6-2,1.6-2,3.4c0,2.3,2.1,3.5,4.2,3.5c1.4,0,3-0.7,3.7-2.1h0c0,0.4,0,1.2,0.1,1.8h2.7
		c-0.1-0.9-0.1-1.8-0.1-2.7C82,27.4,82,26.5,82,25.2 M78.5,27.8c-0.5,0.6-1.2,1.1-2.2,1.1c-1.1,0-2-0.4-2-1.5c0-1.8,2.1-2.1,3.5-2.1
		h1.3C79.2,26.3,79.1,27.2,78.5,27.8 M179.7,13.9c0-0.8-0.5-1.1-1.4-1.1H177v3.7h0.7v-1.6h0.4l0.9,1.6h0.7l-1-1.6
		C179.3,14.9,179.7,14.5,179.7,13.9 M177.7,14.4v-1.1h0.6c0.4,0,0.7,0.1,0.7,0.5c0,0.5-0.4,0.6-0.7,0.6H177.7z M175.5,19.2H174v6.5
		c0,2-0.8,4.3-3.5,4.3c-2,0-2.8-1.4-2.8-3.6v-7.1h-1.5v7.5c0,2.6,1.1,4.5,4,4.5c2.4,0,3.3-1.3,3.8-2.4h0V31h1.4
		c-0.1-0.9-0.1-1.9-0.1-2.8V19.2z M178.2,11.4c-1.8,0-3.2,1.5-3.2,3.3c0,1.8,1.4,3.3,3.2,3.3c1.8,0,3.2-1.5,3.2-3.3
		C181.5,12.9,180,11.4,178.2,11.4 M178.2,17.3c-1.4,0-2.5-1.1-2.5-2.6c0-1.5,1.1-2.6,2.5-2.6c1.3,0,2.4,1.1,2.4,2.6
		C180.7,16.2,179.6,17.3,178.2,17.3 M111.6,18.7c-3.5,0-6.2,2.4-6.2,6.3c0,3.4,2.3,6.2,6.2,6.2c4,0,6.3-2.7,6.3-6.2
		C117.8,21.1,115.1,18.7,111.6,18.7 M111.6,28.8c-2.4,0-3-2.2-3-4.1c0-1.8,1-3.5,3-3.5c2,0,3,1.7,3,3.5
		C114.6,26.6,113.9,28.8,111.6,28.8 M159.3,18.9c-2.5,0-3.4,1.8-3.8,2.4h0l0.1-2.1h-1.5v16.6h1.5V29h0c0.7,1.5,1.8,2.3,3.7,2.3
		c3.2,0,4.8-2.7,4.8-6.2C164.1,21.5,162.7,18.9,159.3,18.9 M159.1,30c-2.6,0-3.5-2.8-3.5-4.9c0-2.1,0.9-4.9,3.5-4.9
		c2.8,0,3.5,2.6,3.5,4.9C162.5,27.4,161.8,30,159.1,30 M147.3,23.3c0-3.1-1.2-4.4-4.1-4.4c-1,0-2.6,0.4-3.5,0.8v1.4
		c1.1-0.7,2.2-1,3.5-1c2,0,2.7,1,2.7,3v0.6h-0.3c-3,0-7.2,0.2-7.2,4.1c0,1.1,0.5,3.3,3.9,3.3c1.5,0,3.1-0.8,3.7-2.2h0V31h1.4
		c-0.1-0.8-0.1-1.5-0.1-2.5V23.3z M145.8,25.8c0,1.3-0.1,4.2-3.5,4.2c-1.3,0-2.4-0.6-2.4-2.1c0-2.6,3-2.8,5.5-2.8h0.4V25.8z M128,29
		l-5.9-14.2h-2.5V31h1.6V16.5h0l6,14.5h1.4l5.9-14.5h0V31h1.6V14.9H134L128,29z M151.4,14.8h-1.5v1.9h1.5V14.8z M150,31h1.5V19.2
		H150V31z"/>
	<g>
		<path class="st0" d="M43.6,21.8c0,12-9.8,21.8-21.8,21.8C9.8,43.6,0,33.8,0,21.8C0,9.8,9.8,0,21.8,0C33.8,0,43.6,9.8,43.6,21.8"/>
		<path class="st1" d="M41.7,24c-0.3,0-0.6,0-1,0c-8.1,0-14.6,6.6-14.6,14.6c0,0.9,0.1,1.8,0.2,2.6C34.5,39.4,40.7,32.5,41.7,24"/>
		<path class="st1" d="M3,24c-0.4,0-0.8,0-1.2,0c1,8.5,7.3,15.5,15.5,17.3c0.2-0.9,0.3-1.8,0.3-2.7C17.7,30.6,11.1,24,3,24"/>
		<path class="st2" d="M3,21.9c1.6,0,3.2,0.2,4.7,0.7c0.5-7.3,6.6-13.1,14.1-13.1c7.5,0,13.6,5.8,14.1,13.2c1.5-0.5,3.2-0.7,4.9-0.7
			c0.4,0,0.7,0,1.1,0c0,0,0-0.1,0-0.1c0-11.1-9-20-20-20c-11.1,0-20,9-20,20v0.1C2.2,21.9,2.6,21.9,3,21.9"/>
		<path class="st3" d="M23.9,38.7c0-6.8,4-12.6,9.8-15.3c-0.1-6.5-5.4-11.8-12-11.8c-6.5,0-11.8,5.2-12,11.7c5.9,2.6,10,8.5,10,15.4
			c0,1-0.1,2.1-0.3,3c0.7,0.1,1.5,0.1,2.2,0.1c0.8,0,1.6-0.1,2.4-0.1C24,40.7,23.9,39.7,23.9,38.7"/>
	</g>
</g>
</svg>
